<?xml version="1.0" encoding="UTF-8"?>
<svg width="16px" height="16px" viewBox="0 0 16 16" version="1.1" xmlns="http://www.w3.org/2000/svg" xmlns:xlink="http://www.w3.org/1999/xlink">
    <title>创作中心</title>
    <g id="页面-1" stroke="none" stroke-width="1" fill="none" fill-rule="evenodd">
        <g id="logo" transform="translate(-323, -265)">
            <g id="创作中心" transform="translate(323, 265)">
                <rect id="矩形备份-7" x="0" y="0" width="16" height="16"></rect>
                <g id="编组" transform="translate(2, 0.8152)">
                    <path d="M12,6.26730577 C12,8.93392686 10.40565,11.2115833 8.1583125,12.1168956 L6,12.1168956 L3.8416875,12.1168956 C1.59435,11.2115833 0,8.93392686 0,6.26730577 C0,2.80595114 2.686275,0 6,0 C9.313725,0 12,2.80595114 12,6.26730577 Z" id="路径" stroke="#333333" stroke-linecap="round" stroke-linejoin="round"></path>
                    <path d="M5.59880378,3.64268719 L7.45716292,3.64268719 C7.56761987,3.64268719 7.65716292,3.73223024 7.65716292,3.84268719 C7.65716292,3.88563922 7.64333519,3.92745017 7.617726,3.96193272 L6.63736927,5.28197471 C6.57151178,5.37065125 6.59001028,5.49592584 6.67868682,5.56178333 C6.71316938,5.58739251 6.75498032,5.60122024 6.79793235,5.60122024 L7.94381852,5.60122024 C8.05427547,5.60122024 8.14381852,5.69076329 8.14381852,5.80122024 C8.14381852,5.84956758 8.12630529,5.89627835 8.09451979,5.93270837 L5.75501742,8.61406051 C5.68239853,8.69729052 5.55605803,8.70589254 5.47282802,8.63327365 C5.41628777,8.5839418 5.39211762,8.50711251 5.41023031,8.43429519 L5.80959246,6.82876396 C5.83625522,6.72157331 5.77097446,6.61306369 5.66378381,6.58640093 C5.64799194,6.58247284 5.63177969,6.58048677 5.61550662,6.58048677 L4.34230389,6.58048677 C4.23184694,6.58048677 4.14230389,6.49094372 4.14230389,6.38048676 C4.14230389,6.34970235 4.14941026,6.31933345 4.16306952,6.29174533 L5.41956941,3.75394576 C5.45330742,3.68580384 5.52276711,3.64268719 5.59880378,3.64268719 Z" id="路径" fill="#333333" fill-rule="nonzero"></path>
                    <path d="M8.1583875,12.1168956 L7.903725,14.1541402 C7.887525,14.3571618 7.7250375,14.513296 7.53,14.513296 L4.4701125,14.513296 C4.275075,14.513296 4.1125875,14.3571618 4.096425,14.1541402 L3.841725,12.1168956" id="路径" stroke="#333333" stroke-linecap="round" stroke-linejoin="round"></path>
                </g>
            </g>
        </g>
    </g>
</svg>