<?xml version="1.0" encoding="UTF-8"?>
<svg width="16px" height="16px" viewBox="0 0 16 16" version="1.1" xmlns="http://www.w3.org/2000/svg" xmlns:xlink="http://www.w3.org/1999/xlink">
    <title>动态</title>
    <g id="页面-1" stroke="none" stroke-width="1" fill="none" fill-rule="evenodd">
        <g id="logo" transform="translate(-251, -265)">
            <g id="动态" transform="translate(251, 265)">
                <rect id="矩形备份-4" x="0" y="0" width="16" height="16"></rect>
                <g id="编组" transform="translate(1, 1)" stroke="#333333" stroke-linejoin="round">
                    <path d="M7,7 C8.93298,7 10.5,5.43298 10.5,3.5 C10.5,1.5670025 8.93298,0 7,0 L7,7 Z" id="路径"></path>
                    <path d="M7,7 C7,8.93298 8.56702,10.5 10.5,10.5 C12.43298,10.5 14,8.93298 14,7 L7,7 Z" id="路径"></path>
                    <path d="M7,7 C7,5.06702 5.43298,3.5 3.5,3.5 C1.5670025,3.5 0,5.06702 0,7 L7,7 Z" id="路径"></path>
                    <path d="M7,7 C5.06702,7 3.5,8.56702 3.5,10.5 C3.5,12.43298 5.06702,14 7,14 L7,7 Z" id="路径"></path>
                </g>
            </g>
        </g>
    </g>
</svg>