<?xml version="1.0" encoding="UTF-8"?>
<svg width="16px" height="16px" viewBox="0 0 16 16" version="1.1" xmlns="http://www.w3.org/2000/svg" xmlns:xlink="http://www.w3.org/1999/xlink">
    <title>大会员</title>
    <g id="页面-1" stroke="none" stroke-width="1" fill="none" fill-rule="evenodd">
        <g id="logo" transform="translate(-205, -265)">
            <g id="大会员" transform="translate(205, 265)">
                <rect id="矩形" x="0" y="0" width="16" height="16"></rect>
                <g transform="translate(1, 1)" fill-rule="nonzero">
                    <path d="M14,7 C14,10.8661538 10.8661538,14 7,14 C3.13384615,14 0,10.8661538 0,7 C0,3.13384615 3.13384615,0 7,0 C10.8661538,0 14,3.13384615 14,7 Z" id="路径" stroke="#333333" stroke-width="0.875"></path>
                    <path d="M5.88215385,9.49200001 C6.00923078,9.18184615 7.01184617,6.94830769 7.13138462,6.74638461 C7.24446154,6.5563077 7.39953846,6.50407692 7.63161538,6.42653846 L7.67307693,6.41253846 C8.3216101,6.22638264 8.99627416,6.1478022 9.67023077,6.17992309 C10.227,6.27307693 10.7046154,6.29623078 10.7600769,5.77661539 C10.8177866,5.29098869 10.5839373,4.81695831 10.1634615,4.56723078 C9.64365531,4.48015316 9.10994618,4.53637226 8.6196923,4.72984616 C8.55507691,4.75138462 8.46030768,4.78746154 8.35584615,4.82730769 C8.07907691,4.93392307 7.73123076,5.06746154 7.67307693,5.01630769 C7.64615386,4.99369231 7.66015384,4.90646154 7.68007692,4.77992308 C7.71992307,4.52361538 7.78507692,4.10576923 7.59338461,3.73746153 C7.2944011,3.26344614 6.77687459,2.97179354 6.21653847,2.96153846 C5.84284616,2.96153846 5.69153847,3.13223077 5.75507692,3.17907692 C5.94138462,3.50753846 6.08084615,3.8596923 6.16861539,4.22584615 C6.23538461,4.56776923 6.21061538,4.92046154 6.097,5.25 C5.2448282,5.44469344 4.37623457,5.55881129 3.5026923,5.59084616 C3.48169231,5.59084616 3.45799999,5.6533077 3.43107692,5.77769231 C3.44830769,6.14923076 3.56353846,6.51 3.76600001,6.82446154 C3.93023077,7.02907692 4.03415385,6.99138462 4.19515384,6.93215384 C4.22961537,6.91976922 4.26623076,6.90684615 4.30661538,6.89446154 C4.77425404,6.76032694 5.26152647,6.70786547 5.747,6.73938462 C5.88969229,6.83146155 5.35930769,7.59715385 5.07284615,8.01176923 C5.02330768,8.08284615 4.98130769,8.14369232 4.95115385,8.18946153 C4.74384616,8.49961538 3.92484616,9.49953845 3.5026923,9.63953846 C3.08161538,9.77953846 3.18499999,10.0035385 3.57430769,10.2986154 C3.99430769,10.5366154 4.50584614,10.5651538 4.95115385,10.3766923 C5.34243448,10.1807608 5.66653146,9.8727843 5.88215385,9.49200001 L5.88215385,9.49200001 Z M10.3099231,10.1236154 C10.5845385,10.3508462 10.7105384,10.2727692 11.0002308,9.33800001 C11.2570769,8.51146155 10.1623846,8.01015385 9.61315384,7.75869231 C9.54153846,7.72638462 9.47907692,7.69784616 9.43007692,7.67307693 C9.00316072,7.48832296 8.55524309,7.35649738 8.09630768,7.28053846 L8.04030769,7.27676924 C7.89761539,7.26707692 7.69838461,7.25307694 7.60199999,7.336 C7.52398269,7.424097 7.51749517,7.55451854 7.58638462,7.64992308 C7.65692309,7.76784616 10.0347692,9.89584615 10.3099231,10.1236154 L10.3099231,10.1236154 Z" id="形状" fill="#333333"></path>
                </g>
            </g>
        </g>
    </g>
</svg>