<?xml version="1.0" encoding="UTF-8"?>
<svg width="16px" height="16px" viewBox="0 0 16 16" version="1.1" xmlns="http://www.w3.org/2000/svg" xmlns:xlink="http://www.w3.org/1999/xlink">
    <title>收藏</title>
    <g id="页面-1" stroke="none" stroke-width="1" fill="none" fill-rule="evenodd">
        <g id="logo" transform="translate(-275, -265)">
            <g id="收藏" transform="translate(275, 265)">
                <rect id="矩形备份-5" x="0" y="0" width="16" height="16"></rect>
                <g transform="translate(0, 0.4014)" stroke="#333333">
                    <path d="M7.49092472,1.02430275 L5.6877969,4.65634464 C5.6041823,4.82476961 5.44305893,4.94127825 5.25691688,4.96791487 L1.15679807,5.55463515 C0.844389191,5.59934034 0.627372483,5.8888385 0.67207768,6.20124737 C0.690082158,6.32706627 0.749520081,6.44329153 0.840990202,6.53153988 L3.80430271,9.39047855 C3.94134365,9.52269264 4.00352023,9.71448396 3.97011728,9.90195403 L3.26660174,13.8503504 C3.21124235,14.1610483 3.41823512,14.4577964 3.72893304,14.5131558 C3.85395531,14.5354319 3.98283591,14.5154274 4.0952231,14.4563012 L7.733415,12.54227 C7.89994716,12.4546584 8.09893738,12.4546497 8.26547714,12.5422469 L11.9064251,14.4573247 C12.1857359,14.6042375 12.5312583,14.4969077 12.6781711,14.217597 C12.7371638,14.10544 12.7572005,13.9768549 12.7351296,13.8520662 L12.0363645,9.90124835 C12.0032754,9.7141627 12.0653342,9.52286577 12.2019484,9.39083366 L15.1614708,6.53057548 C15.3884008,6.31125688 15.394571,5.94950094 15.1752524,5.72257097 C15.0871491,5.63141007 14.9712318,5.57213618 14.8457469,5.5540795 L10.7716619,4.96783795 C10.5867325,4.94122747 10.4264914,4.82589264 10.3425465,4.65897862 L8.51325369,1.02165522 C8.37145811,0.73971219 8.0279501,0.626100227 7.74600707,0.767895803 C7.63546063,0.823492127 7.54594774,0.913469835 7.49092472,1.02430275 Z" id="路径" stroke-linejoin="round"></path>
                    <path d="M6.36972414,8.78572649 C6.93211519,9.21832035 7.52262249,9.43461728 8.14124605,9.43461728 C8.75986961,9.43461728 9.34225699,9.20402348 9.88840817,8.74283587" id="路径-2" stroke-linecap="round"></path>
                </g>
            </g>
        </g>
    </g>
</svg>