<?xml version="1.0" encoding="UTF-8"?>
<svg width="16px" height="16px" viewBox="0 0 16 16" version="1.1" xmlns="http://www.w3.org/2000/svg" xmlns:xlink="http://www.w3.org/1999/xlink">
    <title>消息</title>
    <g id="页面-1" stroke="none" stroke-width="1" fill="none" fill-rule="evenodd">
        <g id="logo" transform="translate(-227, -265)">
            <g id="消息" transform="translate(227, 265)">
                <rect id="矩形备份-3" x="0" y="0" width="16" height="16"></rect>
                <g id="编组" transform="translate(1, 2)" stroke="#333333" stroke-linejoin="round">
                    <path d="M2,12 L12,12 C13.1045695,12 14,11.1045695 14,10 L14,6 L14,2 C14,0.8954305 13.1045695,-2.705415e-16 12,0 L7,0 L2,0 C0.8954305,2.02906125e-16 -2.02906125e-16,0.8954305 0,2 L0,6 L0,10 C1.3527075e-16,11.1045695 0.8954305,12 2,12 Z" id="路径"></path>
                    <polyline id="路径" stroke-linecap="round" points="1.98646394 2.07533495 6.92921368 6.34848233 11.8618749 1.88389238"></polyline>
                </g>
            </g>
        </g>
    </g>
</svg>